<svg width="41" height="48" viewBox="0 0 41 48" fill="none" xmlns="http://www.w3.org/2000/svg">
<g filter="url(#filter0_d_2892_4695)">
<path d="M36 16.8038C40 19.1133 40 24.8868 36 27.1962L8.99999 42.7846C4.99999 45.094 -2.19463e-06 42.2073 -1.99273e-06 37.5885L-6.29948e-07 6.41153C-4.28054e-07 1.79273 5 -1.09401 9 1.21539L36 16.8038Z" fill="#FFC42D"/>
<path d="M35 18.5359C37.6667 20.0755 37.6667 23.9245 35 25.4641L7.99999 41.0526C5.33333 42.5922 2 40.6677 2 37.5885L2 6.41153C2 3.33234 5.33333 1.40784 8 2.94744L35 18.5359Z" stroke="black" stroke-width="4"/>
</g>
<defs>
<filter id="filter0_d_2892_4695" x="0" y="0.402832" width="41" height="47.1943" filterUnits="userSpaceOnUse" color-interpolation-filters="sRGB">
<feFlood flood-opacity="0" result="BackgroundImageFix"/>
<feColorMatrix in="SourceAlpha" type="matrix" values="0 0 0 0 0 0 0 0 0 0 0 0 0 0 0 0 0 0 127 0" result="hardAlpha"/>
<feOffset dx="2" dy="4"/>
<feComposite in2="hardAlpha" operator="out"/>
<feColorMatrix type="matrix" values="0 0 0 0 1 0 0 0 0 0.768627 0 0 0 0 0.176471 0 0 0 1 0"/>
<feBlend mode="normal" in2="BackgroundImageFix" result="effect1_dropShadow_2892_4695"/>
<feBlend mode="normal" in="SourceGraphic" in2="effect1_dropShadow_2892_4695" result="shape"/>
</filter>
</defs>
</svg>
