<svg width="42" height="44" viewBox="0 0 42 44" fill="none" xmlns="http://www.w3.org/2000/svg">
<g id="Group 56">
<g id="Ellipse 378" filter="url(#filter0_d_2938_5429)">
<circle cx="20" cy="20" r="20" fill="#FFC42D"/>
<circle cx="20" cy="20" r="18" stroke="black" stroke-width="4"/>
</g>
<path id="&#244;&#128;&#140;&#159;" d="M12.4531 26.8984C11.6354 26.8984 11.0208 26.6953 10.6094 26.2891C10.2031 25.888 10 25.2839 10 24.4766V16.2969C10 15.4948 10.2031 14.8932 10.6094 14.4922C11.0208 14.0859 11.6354 13.8828 12.4531 13.8828H14.6328C14.9401 13.8828 15.1667 13.8464 15.3125 13.7734C15.4583 13.6953 15.6172 13.5599 15.7891 13.3672L16.4141 12.6641C16.612 12.4505 16.8255 12.2865 17.0547 12.1719C17.2891 12.0573 17.6068 12 18.0078 12H21.125C21.526 12 21.8438 12.0573 22.0781 12.1719C22.3125 12.2865 22.526 12.4505 22.7188 12.6641L23.3438 13.3672C23.4635 13.4974 23.5703 13.6016 23.6641 13.6797C23.763 13.7526 23.875 13.8047 24 13.8359C24.125 13.8672 24.2917 13.8828 24.5 13.8828H26.7344C27.5469 13.8828 28.1589 14.0859 28.5703 14.4922C28.9818 14.8932 29.1875 15.4948 29.1875 16.2969V24.4766C29.1875 25.2839 28.9818 25.888 28.5703 26.2891C28.1589 26.6953 27.5469 26.8984 26.7344 26.8984H12.4531ZM19.5938 24.5938C20.1823 24.5938 20.7344 24.4844 21.25 24.2656C21.7656 24.0469 22.2188 23.7422 22.6094 23.3516C23 22.9609 23.3047 22.5078 23.5234 21.9922C23.7422 21.4766 23.8516 20.9193 23.8516 20.3203C23.8516 19.5286 23.6615 18.8099 23.2812 18.1641C22.901 17.5182 22.388 17.0052 21.7422 16.625C21.0964 16.2448 20.3802 16.0547 19.5938 16.0547C19 16.0547 18.4453 16.1641 17.9297 16.3828C17.4141 16.6016 16.9609 16.9062 16.5703 17.2969C16.1849 17.6875 15.8802 18.1406 15.6562 18.6562C15.4375 19.1719 15.3281 19.7266 15.3281 20.3203C15.3281 20.9193 15.4375 21.4766 15.6562 21.9922C15.8802 22.5078 16.1849 22.9609 16.5703 23.3516C16.9609 23.7422 17.4141 24.0469 17.9297 24.2656C18.4453 24.4844 19 24.5938 19.5938 24.5938ZM19.5938 23.4062C19.026 23.4062 18.5078 23.2682 18.0391 22.9922C17.5755 22.7161 17.2031 22.3464 16.9219 21.8828C16.6458 21.4141 16.5078 20.8932 16.5078 20.3203C16.5078 19.7526 16.6458 19.237 16.9219 18.7734C17.2031 18.3047 17.5755 17.9323 18.0391 17.6562C18.5078 17.375 19.026 17.2344 19.5938 17.2344C20.1615 17.2344 20.6771 17.375 21.1406 17.6562C21.6094 17.9323 21.9818 18.3047 22.2578 18.7734C22.5339 19.237 22.6719 19.7526 22.6719 20.3203C22.6719 20.8932 22.5339 21.4141 22.2578 21.8828C21.9818 22.3464 21.6094 22.7161 21.1406 22.9922C20.6771 23.2682 20.1615 23.4062 19.5938 23.4062ZM24.375 17.4453C24.375 17.7266 24.474 17.9661 24.6719 18.1641C24.875 18.3568 25.1146 18.4505 25.3906 18.4453C25.6562 18.4453 25.888 18.349 26.0859 18.1562C26.2891 17.9635 26.3906 17.7266 26.3906 17.4453C26.3906 17.1797 26.2891 16.9479 26.0859 16.75C25.888 16.5469 25.6562 16.4453 25.3906 16.4453C25.1146 16.4453 24.875 16.5469 24.6719 16.75C24.474 16.9479 24.375 17.1797 24.375 17.4453Z" fill="black"/>
</g>
<defs>
<filter id="filter0_d_2938_5429" x="0" y="0" width="42" height="44" filterUnits="userSpaceOnUse" color-interpolation-filters="sRGB">
<feFlood flood-opacity="0" result="BackgroundImageFix"/>
<feColorMatrix in="SourceAlpha" type="matrix" values="0 0 0 0 0 0 0 0 0 0 0 0 0 0 0 0 0 0 127 0" result="hardAlpha"/>
<feOffset dx="2" dy="4"/>
<feComposite in2="hardAlpha" operator="out"/>
<feColorMatrix type="matrix" values="0 0 0 0 1 0 0 0 0 0.768627 0 0 0 0 0.176471 0 0 0 1 0"/>
<feBlend mode="normal" in2="BackgroundImageFix" result="effect1_dropShadow_2938_5429"/>
<feBlend mode="normal" in="SourceGraphic" in2="effect1_dropShadow_2938_5429" result="shape"/>
</filter>
</defs>
</svg>
