<svg width="32" height="32" viewBox="0 0 32 32" fill="none" xmlns="http://www.w3.org/2000/svg">
<circle cx="16" cy="16" r="14" stroke="black" stroke-width="4"/>
<path d="M19.6914 17.6422L13.9258 11.8766L17.5977 7.35318C18.1836 6.63443 19.082 7.09537 18.7695 7.99381L16.5195 14.3766L20.9648 14.4469C21.3242 14.4547 21.5898 14.6969 21.5898 15.0407C21.5898 15.2282 21.5117 15.4001 21.3633 15.5876L19.6914 17.6422ZM21.418 22.6032L9.17578 10.3766C8.94141 10.1344 8.94141 9.72037 9.17578 9.47818C9.42578 9.22818 9.83984 9.22818 10.0898 9.47818L22.3164 21.7047C22.5664 21.9547 22.5664 22.3688 22.3164 22.6032C22.082 22.8532 21.668 22.8532 21.418 22.6032ZM13.9258 24.7282C13.332 25.4469 12.4414 24.986 12.7539 24.0954L14.9961 17.7047L10.5508 17.6344C10.1914 17.6344 9.93359 17.3844 9.93359 17.0485C9.93359 16.8532 10.0039 16.6813 10.1523 16.5016L11.8164 14.4469L17.5898 20.2126L13.9258 24.7282Z" fill="black"/>
</svg>
