<svg width="32" height="32" viewBox="0 0 32 32" fill="none" xmlns="http://www.w3.org/2000/svg">
<circle cx="16" cy="16" r="14" stroke="black" stroke-width="4"/>
<path d="M9.64844 22.7344C7.92188 22.7344 7 21.8281 7 20.1172V10.625C7 8.91406 7.92188 8 9.64844 8H20.4531C22.1875 8 23.1016 8.91406 23.1016 10.625V14.9531C22.8203 14.8984 22.5312 14.8672 22.2344 14.8672C21.9453 14.8672 21.6562 14.8984 21.3594 14.9531V12.9297C21.3594 12.2734 21.0156 11.9609 20.3906 11.9609H9.70312C9.07812 11.9609 8.74219 12.2734 8.74219 12.9297V20.0234C8.74219 20.6875 9.07812 21 9.70312 21H17.1562C17.2422 21.625 17.4688 22.2188 17.7969 22.7344H9.64844ZM13.5547 14.5938C13.2734 14.5938 13.1797 14.5078 13.1797 14.2266V13.7656C13.1797 13.4844 13.2734 13.3984 13.5547 13.3984H14.0156C14.2969 13.3984 14.3984 13.4844 14.3984 13.7656V14.2266C14.3984 14.5078 14.2969 14.5938 14.0156 14.5938H13.5547ZM16.0859 14.5938C15.7969 14.5938 15.7031 14.5078 15.7031 14.2266V13.7656C15.7031 13.4844 15.7969 13.3984 16.0859 13.3984H16.5391C16.8203 13.3984 16.9219 13.4844 16.9219 13.7656V14.2266C16.9219 14.5078 16.8203 14.5938 16.5391 14.5938H16.0859ZM18.6094 14.5938C18.3203 14.5938 18.2266 14.5078 18.2266 14.2266V13.7656C18.2266 13.4844 18.3203 13.3984 18.6094 13.3984H19.0625C19.3516 13.3984 19.4453 13.4844 19.4453 13.7656V14.2266C19.4453 14.5078 19.3516 14.5938 19.0625 14.5938H18.6094ZM11.0312 17.0781C10.75 17.0781 10.6562 16.9922 10.6562 16.7109V16.25C10.6562 15.9688 10.75 15.8828 11.0312 15.8828H11.4922C11.7734 15.8828 11.875 15.9688 11.875 16.25V16.7109C11.875 16.9922 11.7734 17.0781 11.4922 17.0781H11.0312ZM13.5547 17.0781C13.2734 17.0781 13.1797 16.9922 13.1797 16.7109V16.25C13.1797 15.9688 13.2734 15.8828 13.5547 15.8828H14.0156C14.2969 15.8828 14.3984 15.9688 14.3984 16.25V16.7109C14.3984 16.9922 14.2969 17.0781 14.0156 17.0781H13.5547ZM16.0859 17.0781C15.7969 17.0781 15.7031 16.9922 15.7031 16.7109V16.25C15.7031 15.9688 15.7969 15.8828 16.0859 15.8828H16.5391C16.8203 15.8828 16.9219 15.9688 16.9219 16.25V16.7109C16.9219 16.9922 16.8203 17.0781 16.5391 17.0781H16.0859ZM22.2422 24.125C20.0156 24.125 18.1797 22.2891 18.1797 20.0625C18.1797 17.8438 20.0156 16.0078 22.2422 16.0078C24.4688 16.0078 26.2969 17.8438 26.2969 20.0625C26.2969 22.2812 24.4453 24.125 22.2422 24.125ZM22.2422 22.6641C22.5859 22.6641 22.8125 22.4297 22.8125 22.0938V20.6406H24.2578C24.6016 20.6406 24.8281 20.4141 24.8281 20.0703C24.8281 19.7188 24.6016 19.4922 24.2578 19.4922H22.8125V18.0547C22.8125 17.7031 22.5859 17.4766 22.2422 17.4766C21.8906 17.4766 21.6641 17.7109 21.6641 18.0547V19.4922H20.2188C19.875 19.4922 19.6484 19.7188 19.6484 20.0703C19.6484 20.4141 19.8828 20.6406 20.2188 20.6406H21.6641V22.0938C21.6641 22.4297 21.8906 22.6641 22.2422 22.6641ZM11.0312 19.5625C10.75 19.5625 10.6562 19.4766 10.6562 19.1953V18.7344C10.6562 18.4531 10.75 18.3672 11.0312 18.3672H11.4922C11.7734 18.3672 11.875 18.4531 11.875 18.7344V19.1953C11.875 19.4766 11.7734 19.5625 11.4922 19.5625H11.0312ZM13.5547 19.5625C13.2734 19.5625 13.1797 19.4766 13.1797 19.1953V18.7344C13.1797 18.4531 13.2734 18.3672 13.5547 18.3672H14.0156C14.2969 18.3672 14.3984 18.4531 14.3984 18.7344V19.1953C14.3984 19.4766 14.2969 19.5625 14.0156 19.5625H13.5547ZM16.0859 19.5625C15.7969 19.5625 15.7031 19.4766 15.7031 19.1953V18.7344C15.7031 18.4531 15.7969 18.3672 16.0859 18.3672H16.5391C16.8203 18.3672 16.9219 18.4531 16.9219 18.7344V19.1953C16.9219 19.4766 16.8203 19.5625 16.5391 19.5625H16.0859Z" fill="black"/>
</svg>
