<svg width="34" height="36" viewBox="0 0 34 36" fill="none" xmlns="http://www.w3.org/2000/svg">
<g filter="url(#filter0_d_3171_5334)">
<circle cx="16" cy="16" r="16" fill="#FFC42D"/>
<circle cx="16" cy="16" r="14" stroke="black" stroke-width="4"/>
</g>
<path d="M15.0156 22.7031C14.5625 22.7031 14.2031 22.5234 13.7734 22.125L7.57031 16.3203C7.26562 16.0312 7.13281 15.6641 7.13281 15.3594C7.13281 15.0391 7.25781 14.6953 7.57031 14.3984L13.7734 8.63281C14.25 8.19531 14.5625 8.01562 15 8.01562C15.6719 8.01562 16.1562 8.53906 16.1562 9.19531V11.8828H16.3281C21.5938 11.8828 24.1172 15.2656 24.1172 20.875C24.1172 22.0469 23.6797 22.6484 23.0547 22.6484C22.5938 22.6484 22.2031 22.4844 21.8672 21.875C20.7188 19.7578 19.0781 18.875 16.3281 18.875H16.1562V21.5625C16.1562 22.2188 15.6719 22.7031 15.0156 22.7031Z" fill="black"/>
<defs>
<filter id="filter0_d_3171_5334" x="0" y="0" width="34" height="36" filterUnits="userSpaceOnUse" color-interpolation-filters="sRGB">
<feFlood flood-opacity="0" result="BackgroundImageFix"/>
<feColorMatrix in="SourceAlpha" type="matrix" values="0 0 0 0 0 0 0 0 0 0 0 0 0 0 0 0 0 0 127 0" result="hardAlpha"/>
<feOffset dx="2" dy="4"/>
<feComposite in2="hardAlpha" operator="out"/>
<feColorMatrix type="matrix" values="0 0 0 0 1 0 0 0 0 0.768627 0 0 0 0 0.176471 0 0 0 1 0"/>
<feBlend mode="normal" in2="BackgroundImageFix" result="effect1_dropShadow_3171_5334"/>
<feBlend mode="normal" in="SourceGraphic" in2="effect1_dropShadow_3171_5334" result="shape"/>
</filter>
</defs>
</svg>
