<svg width="34" height="36" viewBox="0 0 34 36" fill="none" xmlns="http://www.w3.org/2000/svg">
<g filter="url(#filter0_d_3171_5335)">
<circle cx="16" cy="16" r="16" fill="#FFC42D"/>
<circle cx="16" cy="16" r="14" stroke="black" stroke-width="4"/>
</g>
<path d="M15.2891 24.7578C14.7812 24.7578 14.3906 24.4531 14.2891 23.9609L13.8984 22.3438C13.6562 22.2656 13.4297 22.1719 13.2188 22.0703L11.8047 22.9375C11.3828 23.2031 10.8906 23.1562 10.5391 22.8047L9.53906 21.8125C9.1875 21.4609 9.14062 20.9453 9.42188 20.5234L10.2812 19.125C10.1797 18.9141 10.0859 18.6875 10.0156 18.4688L8.38281 18.0781C7.89062 17.9688 7.59375 17.5859 7.59375 17.0781V15.6797C7.59375 15.1797 7.89062 14.7969 8.38281 14.6875L10 14.2969C10.0781 14.0469 10.1797 13.8203 10.2656 13.6328L9.39844 12.2031C9.13281 11.7734 9.16406 11.2812 9.53125 10.9297L10.5391 9.9375C10.8984 9.60156 11.3438 9.54688 11.7734 9.78125L13.2109 10.6641C13.4219 10.5625 13.6562 10.4688 13.8984 10.3828L14.2891 8.75781C14.3906 8.26562 14.7812 7.96094 15.2891 7.96094H16.7109C17.2188 7.96094 17.6016 8.26562 17.7109 8.75781L18.0938 10.3984C18.3438 10.4844 18.5703 10.5703 18.7734 10.6719L20.2266 9.78125C20.6484 9.54688 21.0938 9.60938 21.4453 9.92969L22.4609 10.9297C22.8281 11.2812 22.8672 11.7734 22.5938 12.2031L21.7266 13.6328C21.8125 13.8203 21.9141 14.0469 21.9922 14.2969L23.6094 14.6875C24.1016 14.7969 24.3984 15.1797 24.3984 15.6797V17.0781C24.3984 17.5859 24.1016 17.9688 23.6094 18.0781L21.9766 18.4688C21.9062 18.6875 21.8125 18.9141 21.7188 19.125L22.5781 20.5234C22.8516 20.9453 22.8047 21.4609 22.4531 21.8125L21.4531 22.8047C21.1016 23.1562 20.6094 23.2031 20.1875 22.9375L18.7734 22.0703C18.5703 22.1719 18.3359 22.2656 18.0938 22.3438L17.7109 23.9609C17.6016 24.4531 17.2188 24.7578 16.7109 24.7578H15.2891ZM16 19.0781C17.4922 19.0781 18.7109 17.8516 18.7109 16.3516C18.7109 14.8672 17.4922 13.6484 16 13.6484C14.5078 13.6484 13.2812 14.8672 13.2812 16.3516C13.2812 17.8516 14.5078 19.0781 16 19.0781Z" fill="black"/>
<defs>
<filter id="filter0_d_3171_5335" x="0" y="0" width="34" height="36" filterUnits="userSpaceOnUse" color-interpolation-filters="sRGB">
<feFlood flood-opacity="0" result="BackgroundImageFix"/>
<feColorMatrix in="SourceAlpha" type="matrix" values="0 0 0 0 0 0 0 0 0 0 0 0 0 0 0 0 0 0 127 0" result="hardAlpha"/>
<feOffset dx="2" dy="4"/>
<feComposite in2="hardAlpha" operator="out"/>
<feColorMatrix type="matrix" values="0 0 0 0 1 0 0 0 0 0.768627 0 0 0 0 0.176471 0 0 0 1 0"/>
<feBlend mode="normal" in2="BackgroundImageFix" result="effect1_dropShadow_3171_5335"/>
<feBlend mode="normal" in="SourceGraphic" in2="effect1_dropShadow_3171_5335" result="shape"/>
</filter>
</defs>
</svg>
