<svg width="32" height="32" viewBox="0 0 32 32" fill="none" xmlns="http://www.w3.org/2000/svg">
<circle cx="16" cy="16" r="14" stroke="black" stroke-width="4"/>
<path d="M9.63786 9.69223C11.227 8.05273 13.506 7 16.012 7C20.6661 7 24.5168 10.512 25.0581 14.8782H26.298C27.014 14.8782 27.1974 15.4219 26.7783 16L24.5954 19.0029C24.2548 19.4688 23.7222 19.4688 23.3904 19.0029L21.2074 15.9914C20.7883 15.4219 20.9891 14.8782 21.6877 14.8782H23.0236C22.5172 11.5733 19.6095 8.97603 16.012 8.97603C14.0299 8.97603 12.2487 9.78715 10.9825 11.0815C10.4586 11.5388 9.88234 11.4784 9.51561 11.0988C9.15761 10.7363 9.14888 10.1323 9.63786 9.69223ZM5.21959 15.9914L7.40253 12.9971C7.74306 12.5312 8.2757 12.5312 8.61624 12.9971L10.7904 16C11.2096 16.5781 11.0087 17.1131 10.3102 17.1131H8.9917C9.49815 20.418 12.4058 23.0153 16.012 23.0153C17.9941 23.0153 19.7842 22.2042 21.0415 20.9012C21.5654 20.4525 22.1417 20.4957 22.5085 20.884C22.8577 21.2378 22.8665 21.8504 22.3862 22.2991C20.797 23.9386 18.5181 25 16.012 25C11.3493 25 7.49857 21.4794 6.95721 17.1131H5.69983C4.99256 17.1131 4.80046 16.5695 5.21959 15.9914Z" fill="black"/>
</svg>
