<svg width="64" height="64" viewBox="0 0 64 64" fill="none" xmlns="http://www.w3.org/2000/svg">
<path d="M44.3695 54.9024L44.3762 54.901L44.4102 54.8937C44.4261 54.8902 44.4466 54.8856 44.4714 54.88C44.4957 54.8745 44.5242 54.8679 44.5567 54.8602C44.6881 54.8292 44.8852 54.7803 45.1387 54.7109C45.6459 54.5718 46.3772 54.3506 47.2578 54.0253C49.0218 53.3735 51.3684 52.3099 53.7089 50.6642C58.3672 47.3887 63 41.8196 63 32.4928C63 31.4982 62.4118 23.5544 58.1679 15.8974C53.9629 8.31071 46.1802 1.00013 31.6506 1L44.3695 54.9024ZM44.3695 54.9024L44.3694 54.9024L44.3688 54.9025L44.3686 54.9026L43.374 55.1041L43.5913 56.0964C43.8057 57.0754 43.7341 58.0953 43.3849 59.0348C43.0357 59.9742 42.4236 60.7936 41.6216 61.3952C40.8196 61.9968 39.8614 62.3553 38.8613 62.4279C37.8611 62.5005 36.8611 62.2841 35.9805 61.8047L35.4185 61.4986L34.9052 61.8808C33.881 62.6432 32.6289 63.0368 31.3524 62.9973C30.076 62.9578 28.8506 62.4876 27.8756 61.6634L27.3911 61.2538L26.8141 61.5176C24.0941 62.7613 22.1354 62.4096 20.9855 61.4487C19.8082 60.4648 19.1609 58.5834 19.6278 56.1199L19.8138 55.1388L18.8331 54.9514C13.696 53.9696 9.07832 51.1871 5.8112 47.1049C2.54409 43.0226 0.842105 37.9088 1.01153 32.6838L1.01206 32.6676V32.6514C1.01206 30.0134 2.21147 22.0383 6.67854 14.752C11.1095 7.5246 18.7254 1.00509 31.6503 1L44.3695 54.9024Z" fill="black" stroke="black" stroke-width="2"/>
</svg>
