<svg width="40" height="40" viewBox="0 0 40 40" fill="none" xmlns="http://www.w3.org/2000/svg">
<path id="&#233;&#170;&#183;&#233;&#171;&#133;&#229;&#164;&#180;" d="M1.00754 20.4233L1.00701 20.4395C0.904015 23.6158 1.93866 26.7246 3.92478 29.2062C5.91091 31.6879 8.71809 33.3794 11.8411 33.9763L12.8218 34.1637L12.6358 35.1448C12.3608 36.5956 12.7557 37.6156 13.3564 38.1177C13.9297 38.5968 14.9876 38.846 16.6029 38.1075L17.1799 37.8437L17.6643 38.2532C18.209 38.7137 18.8937 38.9764 19.6069 38.9985C20.32 39.0205 21.0196 38.8007 21.5918 38.3747L22.1051 37.9925L22.6672 38.2986C23.1544 38.5639 23.7077 38.6836 24.2611 38.6434C24.8146 38.6032 25.3447 38.4049 25.7885 38.072C26.2322 37.7391 26.5708 37.2858 26.764 36.7661C26.9572 36.2463 26.9969 35.6821 26.8782 35.1405L26.6609 34.1482L27.655 33.9468L27.6552 33.9467L27.6557 33.9466L27.6565 33.9465L27.6578 33.9462L27.6762 33.9422C27.694 33.9383 27.7228 33.9319 27.7618 33.9227C27.8398 33.9042 27.9587 33.8748 28.1126 33.8326C28.4205 33.7482 28.8672 33.6132 29.4062 33.414C30.4871 33.0147 31.9228 32.3636 33.3524 31.3583C36.1889 29.3638 39 25.9875 39 20.308C39 19.7303 38.6402 14.8326 36.0269 10.1177C33.4526 5.47295 28.7026 1.00013 19.7818 1L1.00754 20.4233ZM1.00754 20.4233V20.4071M1.00754 20.4233V20.4071M1.00754 20.4071C1.00754 18.8192 1.74215 13.9042 4.49379 9.41601M1.00754 20.4071L4.49379 9.41601M4.49379 9.41601C7.20933 4.98666 11.8592 1.00317 19.7814 1L4.49379 9.41601Z" fill="#FFC42D" stroke="black" stroke-width="2"/>
</svg>
