<svg width="34" height="36" viewBox="0 0 34 36" fill="none" xmlns="http://www.w3.org/2000/svg">
<g filter="url(#filter0_d_3121_10641)">
<circle cx="16" cy="16" r="16" fill="#FFC42D"/>
<circle cx="16" cy="16" r="14" stroke="black" stroke-width="4"/>
</g>
<path d="M12.4805 20.4378C11.7385 20.8661 11.0639 21.0057 10.4567 20.8563C9.85344 20.7047 9.34446 20.2697 8.92975 19.5514L8.44098 18.7048C8.02626 17.9865 7.90406 17.3282 8.07437 16.73C8.24862 16.1295 8.70674 15.615 9.44873 15.1866L10.7275 14.4484L13.7592 19.6995L12.4805 20.4378ZM14.479 19.2918L11.4438 14.0348C11.9052 13.6947 12.4006 13.2903 12.9299 12.8216C13.4591 12.3529 13.9699 11.8475 14.4621 11.3055C14.9582 10.7612 15.3837 10.213 15.7385 9.66083C15.7567 9.6924 15.7749 9.72398 15.7931 9.75555C15.8091 9.78318 15.8273 9.81475 15.8478 9.85027L20.3185 17.5938C20.3345 17.6214 20.3504 17.649 20.3664 17.6766C20.3801 17.7003 20.3949 17.726 20.4108 17.7536C19.7598 17.7927 19.0856 17.8873 18.3881 18.0373C17.6924 18.1812 17.0092 18.3651 16.3387 18.5891C15.6659 18.8092 15.0459 19.0434 14.479 19.2918ZM23.0399 18.0828C22.8189 18.2104 22.5982 18.2746 22.3777 18.2756C22.1596 18.2806 21.9553 18.2275 21.7648 18.1164C21.5784 18.0031 21.4213 17.8359 21.2937 17.6149L16.2864 8.94191C16.1565 8.71695 16.0891 8.49538 16.0842 8.27721C16.0832 8.05676 16.1394 7.8533 16.2527 7.66682C16.3661 7.48034 16.5333 7.3233 16.7543 7.19569C16.9753 7.06809 17.1929 7.00296 17.4071 7.00031C17.6253 6.99539 17.8296 7.04846 18.02 7.15953C18.2105 7.27061 18.3706 7.43863 18.5005 7.66359L23.5078 16.3365C23.6354 16.5575 23.6997 16.7783 23.7007 16.9987C23.7017 17.2192 23.6455 17.4226 23.5321 17.6091C23.425 17.7973 23.2609 17.9551 23.0399 18.0828ZM16.9167 22.9125C16.6009 23.0948 16.3005 23.1578 16.0154 23.1014C15.7302 23.045 15.4308 22.9047 15.1173 22.6806L12.933 21.1395C13.0553 21.0689 13.1729 21.0036 13.2857 20.9438C13.4024 20.8816 13.4915 20.8354 13.553 20.8052C14.215 20.4388 14.7206 20.1706 15.0697 20.0006C15.4228 19.8283 15.7134 19.7026 15.9414 19.6236L17.1506 20.9935C17.3779 21.2412 17.5081 21.4897 17.5415 21.7388C17.5787 21.9857 17.5402 22.2105 17.4257 22.4134C17.3153 22.614 17.1456 22.7804 16.9167 22.9125Z" fill="black"/>
<defs>
<filter id="filter0_d_3121_10641" x="0" y="0" width="34" height="36" filterUnits="userSpaceOnUse" color-interpolation-filters="sRGB">
<feFlood flood-opacity="0" result="BackgroundImageFix"/>
<feColorMatrix in="SourceAlpha" type="matrix" values="0 0 0 0 0 0 0 0 0 0 0 0 0 0 0 0 0 0 127 0" result="hardAlpha"/>
<feOffset dx="2" dy="4"/>
<feComposite in2="hardAlpha" operator="out"/>
<feColorMatrix type="matrix" values="0 0 0 0 1 0 0 0 0 0.768627 0 0 0 0 0.176471 0 0 0 1 0"/>
<feBlend mode="normal" in2="BackgroundImageFix" result="effect1_dropShadow_3121_10641"/>
<feBlend mode="normal" in="SourceGraphic" in2="effect1_dropShadow_3121_10641" result="shape"/>
</filter>
</defs>
</svg>
