<svg width="14" height="15" viewBox="0 0 14 15" fill="none" xmlns="http://www.w3.org/2000/svg">
<path d="M0.734375 13.6329C0.101562 12.9923 0.125 11.8751 0.710938 11.297L4.63281 7.3673L0.710938 3.45324C0.125 2.8673 0.101562 1.75793 0.734375 1.1173C1.375 0.476676 2.49219 0.507926 3.07812 1.08605L7 5.00011L10.9062 1.09386C11.5234 0.476676 12.6016 0.484489 13.2422 1.12511C13.8828 1.76574 13.8906 2.84386 13.2734 3.46105L9.36719 7.3673L13.2734 11.2814C13.8906 11.9064 13.8828 12.9845 13.2422 13.6251C12.6016 14.2579 11.5234 14.2657 10.9062 13.6486L7 9.73449L3.07812 13.6564C2.49219 14.2423 1.375 14.2657 0.734375 13.6329Z" fill="black"/>
</svg>
